HIERARCHY
ROOT locator2
{
  OFFSET 53.6172 30.1899 0.816905
  CHANNELS 6 Xposition Yposition Zposition Zrotation Xrotation Yrotation
  JOINT koshi
  {
    OFFSET 0 0 0
    CHANNELS 6 Xposition Yposition Zposition Zrotation Xrotation Yrotation
    JOINT sippo01
    {
      OFFSET 0 42.8363 -0.548134
      CHANNELS 6 Xposition Yposition Zposition Zrotation Xrotation Yrotation
      JOINT sippo02
      {
        OFFSET 0 44.0461 -3.28882
        CHANNELS 6 Xposition Yposition Zposition Zrotation Xrotation Yrotation
        JOINT sippo03
        {
          OFFSET 0 34.1929 -2.46662
          CHANNELS 6 Xposition Yposition Zposition Zrotation Xrotation Yrotation
          JOINT sippo04
          {
            OFFSET 0 30.0959 -1.75404
            CHANNELS 6 Xposition Yposition Zposition Zrotation Xrotation Yrotation
            JOINT sippo05
            {
              OFFSET 0 28.3637 -1.75404
              CHANNELS 6 Xposition Yposition Zposition Zrotation Xrotation Yrotation
              JOINT sippo06
              {
                OFFSET 0 31.6071 -3.2043
                CHANNELS 6 Xposition Yposition Zposition Zrotation Xrotation Yrotation
                End Site
                {
                  OFFSET 0 0 0
                }
              }
            }
          }
        }
      }
    }
    JOINT R_momo
    {
      OFFSET -27.891 13.5892 3.92723
      CHANNELS 6 Xposition Yposition Zposition Zrotation Xrotation Yrotation
      JOINT R_hiza
      {
        OFFSET 0 28.01 1.8232
        CHANNELS 6 Xposition Yposition Zposition Zrotation Xrotation Yrotation
        JOINT R_ashi
        {
          OFFSET 0 24.3992 -2.49174
          CHANNELS 6 Xposition Yposition Zposition Zrotation Xrotation Yrotation
          End Site
          {
            OFFSET 0 0 0
          }
        }
      }
    }
    JOINT L_momo
    {
      OFFSET 27.891 13.5892 3.92714
      CHANNELS 6 Xposition Yposition Zposition Zrotation Xrotation Yrotation
      JOINT L_hiza
      {
        OFFSET 0 28.0098 1.82319
        CHANNELS 6 Xposition Yposition Zposition Zrotation Xrotation Yrotation
        JOINT L_ashi
        {
          OFFSET 0 24.3992 -2.49171
          CHANNELS 6 Xposition Yposition Zposition Zrotation Xrotation Yrotation
          End Site
          {
            OFFSET 0 0 0
          }
        }
      }
    }
  }
  JOINT hara
  {
    OFFSET 0 2.15392 0
    CHANNELS 6 Xposition Yposition Zposition Zrotation Xrotation Yrotation
    JOINT mune
    {
      OFFSET 0 62.0609 0.472494
      CHANNELS 6 Xposition Yposition Zposition Zrotation Xrotation Yrotation
      JOINT R_kata
      {
        OFFSET 22.6695 9.65301 -5.3622
        CHANNELS 6 Xposition Yposition Zposition Zrotation Xrotation Yrotation
        JOINT R_hiji
        {
          OFFSET 0 25.813 1.69098
          CHANNELS 6 Xposition Yposition Zposition Zrotation Xrotation Yrotation
          JOINT R_te
          {
            OFFSET 0 28.5636 -0.966307
            CHANNELS 6 Xposition Yposition Zposition Zrotation Xrotation Yrotation
            End Site
            {
              OFFSET 0 0 0
            }
          }
        }
      }
      JOINT L_kata
      {
        OFFSET -22.6695 9.65298 -5.3622
        CHANNELS 6 Xposition Yposition Zposition Zrotation Xrotation Yrotation
        JOINT L_hiji
        {
          OFFSET 0 25.813 1.69102
          CHANNELS 6 Xposition Yposition Zposition Zrotation Xrotation Yrotation
          JOINT L_te
          {
            OFFSET 0 28.5636 -0.966295
            CHANNELS 6 Xposition Yposition Zposition Zrotation Xrotation Yrotation
            End Site
            {
              OFFSET 0 0 0
            }
          }
        }
      }
      JOINT kubi
      {
        OFFSET 0 23.1438 -0.944988
        CHANNELS 6 Xposition Yposition Zposition Zrotation Xrotation Yrotation
        JOINT atama
        {
          OFFSET 0 20.8625 4.12737
          CHANNELS 6 Xposition Yposition Zposition Zrotation Xrotation Yrotation
          JOINT ago
          {
            OFFSET 0 7.552 -7.58201
            CHANNELS 6 Xposition Yposition Zposition Zrotation Xrotation Yrotation
            End Site
            {
              OFFSET 0 0 0
            }
          }
        }
      }
    }
  }
}
MOTION
Frames:	7
Frame Time:	0.0333333
-0.0376979 26.5525 -0.0241634 -90 -3.50835e-015 -90 0 0 0 -174.661 3.376 0.35786 9.38773e-007 42.8363 -0.548134 1.81187 -15.9246 3.85116 9.18847e-007 44.0461 -3.28882 5.38799 9.38182 -5.23683 -5.55953e-006 34.1929 -2.46662 6.24104 1.42751 -1.69473 -9.40414e-006 30.0959 -1.75404 6.68772 9.66259 -1.64031 -3.65276e-006 28.3637 -1.75404 9.23539 -5.5324 6.53563 7.78266e-006 31.6072 -3.2043 5.25585 -6.08811 -6.1657 -27.891 13.5892 3.92723 117.554 -18.6724 -48.5573 1.14394e-005 28.01 1.8232 11.6568 -82.3047 -4.38435 7.10518e-009 24.3992 -2.49173 -150.152 63.2145 -167.393 27.891 13.5892 3.92714 -102.097 -21.4379 59.5082 2.80392e-009 28.0098 1.82319 -3.41214 -68.4925 9.62722 -3.79992e-006 24.3992 -2.49171 140.615 67.1745 167.025 6.07685e-007 2.15392 3.55271e-015 0.219415 0.91744 -0.628829 0 62.0609 0.472494 -7.45443e-017 -2.26156e-015 -9.93923e-017 22.6695 9.653 -5.3622 -148.728 -0.320198 44.9717 -2.84217e-014 25.813 1.69098 179.956 -80.4423 178.78 3.12431e-008 28.5636 -0.966307 41.0464 11.7084 -95.9617 -22.6695 9.65298 -5.3622 130.946 -6.76767 -51.0844 -1.42109e-014 25.813 1.69102 -179.739 -76.9902 -177.251 0 28.5636 -0.966303 -44.9406 33.0755 111.585 -4.54692e-013 23.1438 -0.94499 -0.345554 -5.86173 0.187785 4.54747e-013 20.8625 4.12737 -0.0333245 -5.81815 0.44873 -6.61137e-009 7.55203 -7.582 -1.09294e-005 4.98376 1.09295e-005 
-0.0241146 26.5753 -0.0687689 -90 -3.50835e-015 -90 0 0 0 -174.882 3.12745 0.126086 9.38773e-007 42.8363 -0.548134 2.04136 -15.8692 3.62378 8.6794e-007 44.0461 -3.28882 4.84461 8.90841 -4.66561 -5.52988e-006 34.1929 -2.46662 7.80131 1.71726 -1.08056 -9.35556e-006 30.0959 -1.75404 8.21496 9.61886 -2.09011 -3.51694e-006 28.3637 -1.75404 10.137 -5.75856 6.6338 7.68995e-006 31.6072 -3.2043 5.30227 -5.09494 -5.59779 -27.891 13.5892 3.92723 117.659 -18.0454 -48.0116 1.14801e-005 28.01 1.8232 12.7718 -82.6789 -3.51851 -3.2205e-009 24.3992 -2.49173 -150.533 63.2696 -167.139 27.891 13.5892 3.92714 -102.314 -21.9602 59.5269 5.93232e-010 28.0098 1.82319 -3.15748 -67.9481 9.58764 -3.82095e-006 24.3992 -2.49171 140.499 67.3706 167.08 6.07685e-007 2.15392 3.55271e-015 0.308593 0.979215 -1.05804 -5.55112e-017 62.0609 0.472494 -4.96962e-017 7.31465e-016 1.98785e-016 22.6695 9.653 -5.3622 -148.484 -0.850596 44.5389 -1.42109e-014 25.813 1.69098 179.952 -81.2896 178.755 2.80034e-008 28.5636 -0.966307 41.0875 11.5064 -95.635 -22.6695 9.65298 -5.3622 131.045 -6.11539 -51.1588 0 25.813 1.69102 -179.752 -76.2982 -177.271 -2.13163e-014 28.5636 -0.966303 -45.0556 33.4142 112.052 -4.54858e-013 23.1438 -0.94499 -0.125518 -5.94587 1.23338 4.54747e-013 20.8625 4.12737 0.164025 -5.86764 1.58129 -2.72312e-008 7.55202 -7.582 -8.61392e-007 4.91436 1.00549e-005 
-0.010795 26.5705 -0.112508 -90 -3.50835e-015 -90 0 0 0 -175.098 3.33898 -0.140917 9.38773e-007 42.8363 -0.548134 2.26417 -15.8151 3.88499 8.41354e-007 44.0461 -3.28882 4.31326 8.44257 -4.11397 -5.48072e-006 34.1929 -2.46662 9.33054 1.99793 -0.494034 -9.2905e-006 30.0959 -1.75403 9.71213 9.56962 -2.52984 -3.37099e-006 28.3637 -1.75404 11.0067 -5.1364 6.57289 7.61415e-006 31.6072 -3.2043 5.34921 -4.12023 -6.28779 -27.891 13.5892 3.92723 117.418 -17.2522 -49.8497 1.14196e-005 28.01 1.8232 13.7291 -83.0472 -2.80178 5.60675e-008 24.3992 -2.49173 -150.916 63.3237 -166.884 27.891 13.5892 3.92714 -101.86 -22.8212 59.643 2.55212e-008 28.0098 1.82319 -2.92161 -67.4184 9.5375 -3.81204e-006 24.3992 -2.49171 140.384 67.5628 167.136 6.07685e-007 2.15392 7.10543e-015 0.396363 1.03968 -1.47899 -1.11022e-016 62.0609 0.472494 -4.96962e-017 7.237e-016 1.98785e-016 22.6695 9.653 -5.3622 -148.457 -1.37028 44.1146 -3.55271e-014 25.813 1.69098 179.947 -82.1222 178.73 2.46422e-008 28.5636 -0.966307 41.1283 11.3092 -95.8122 -22.6695 9.65298 -5.3622 131.089 -5.86833 -51.6856 7.10543e-015 25.813 1.69102 -179.763 -75.6186 -177.29 -2.13163e-014 28.5636 -0.966303 -45.1717 33.747 112.513 -4.54858e-013 23.1438 -0.94499 0.0928236 -6.02821 2.41692 4.54747e-013 20.8625 4.12737 0.35578 -5.91605 2.69215 -4.73838e-008 7.55202 -7.582 -5.71687e-011 4.82676 6.80328e-010 
-0.0309975 26.5656 -0.156681 -90 -3.50835e-015 -90 0 0 0 -175.317 3.55677 -0.925068 9.38773e-007 42.8363 -0.548134 2.48912 -15.7601 4.14843 8.14435e-007 44.0461 -3.28882 3.77793 7.97047 -3.56564 -5.42951e-006 34.1929 -2.46662 8.46095 3.26525 0.0352005 -9.25359e-006 30.0959 -1.75403 9.2646 10.31 -2.76582 -3.38854e-006 28.3637 -1.75404 10.7394 -4.52902 6.40226 7.65656e-006 31.6072 -3.2043 5.39798 -3.13572 -6.98724 -27.891 13.5892 3.92723 117.754 -15.3792 -49.5326 1.14871e-005 28.01 1.8232 14.8105 -83.4191 -2.35506 6.47824e-008 24.3992 -2.49173 -151.303 63.3772 -166.625 27.891 13.5892 3.92714 -101.802 -24.5053 59.594 4.03152e-008 28.0098 1.82319 -2.69269 -66.8795 8.90128 -3.79817e-006 24.3992 -2.49171 140.263 67.7603 167.196 6.07685e-007 2.15392 0 0.468922 1.10019 -1.90148 0 62.0609 0.472494 -4.29856e-011 5.59082e-016 7.95139e-016 22.6695 9.653 -5.3622 -148.426 -1.89674 43.685 -2.13163e-014 25.813 1.69098 179.94 -82.9603 178.704 2.10848e-008 28.5636 -0.966307 41.1307 10.8764 -95.7885 -22.6695 9.65298 -5.3622 131.132 -5.61813 -52.2192 -2.13163e-014 25.813 1.69102 -179.774 -74.9322 -177.309 0 28.5636 -0.966303 -45.2911 34.0812 112.978 -4.54969e-013 23.1438 -0.94499 0.308565 -6.11148 3.61419 4.54969e-013 20.8625 4.12737 0.549553 -5.96486 3.81276 -6.76405e-008 7.55202 -7.582 -3.87376e-009 4.74763 4.68045e-008 
-0.051398 26.5606 -0.244022 -90 -3.50835e-015 -90 0 0 0 -175.537 3.77549 -1.71285 9.38773e-007 42.8363 -0.548134 2.13194 -15.7106 4.25688 8.80282e-007 44.0461 -3.28882 3.23852 7.49224 -3.0208 -5.30191e-006 34.1929 -2.46662 7.58468 4.54938 0.608555 -9.1559e-006 30.0959 -1.75403 8.8112 11.0598 -2.99237 -3.3592e-006 28.3637 -1.75404 10.4718 -3.91532 6.23597 7.7352e-006 31.6072 -3.2043 5.44862 -2.14206 -7.69495 -27.891 13.5892 3.92723 117.972 -13.5015 -49.2334 1.15521e-005 28.01 1.8232 16.0291 -83.7903 -1.77768 6.89365e-008 24.3992 -2.49173 -151.346 63.7596 -166.756 27.891 13.5892 3.92714 -101.644 -26.2208 59.5665 5.89372e-008 28.0098 1.82319 -2.47215 -66.3324 8.24758 -3.77916e-006 24.3992 -2.49171 140.142 67.9523 167.256 6.07685e-007 2.15392 3.55271e-015 0.542164 1.16187 -2.32999 -3.33067e-016 62.0609 0.472494 -1.00178e-005 -2.04049e-013 -1.03368e-013 22.6695 9.653 -5.3622 -148.383 -2.76389 43.4616 -7.10543e-015 25.813 1.69098 179.932 -83.8076 178.676 1.73283e-008 28.5636 -0.966307 40.9791 10.462 -95.734 -22.6695 9.65298 -5.3622 131.175 -5.3652 -52.7583 -1.42109e-014 25.813 1.69102 -179.783 -74.2392 -177.326 0 28.5636 -0.966303 -45.4151 34.4193 113.451 -4.54969e-013 23.1438 -0.94499 0.527487 -6.19541 4.82278 4.54747e-013 20.8625 4.12737 0.745446 -6.01411 4.94594 -8.80143e-008 7.55202 -7.582 -8.17972e-007 4.66773 1.00512e-005 
-0.0714025 26.5557 -0.329668 -90 -3.50835e-015 -90 0 0 0 -175.753 3.99027 -2.48439 9.38773e-007 42.8363 -0.548134 1.78327 -15.6619 4.36251 9.44587e-007 44.0461 -3.28882 2.71139 7.02245 -2.49556 -5.17543e-006 34.1929 -2.46662 6.72531 5.8133 1.20894 -9.05852e-006 30.0959 -1.75403 8.36523 11.7971 -3.2032 -3.32669e-006 28.3637 -1.75404 10.2101 -3.31031 6.07788 7.82485e-006 31.6072 -3.2043 5.5 -1.16837 -8.39054 -27.891 13.5892 3.92723 118.075 -11.6806 -48.9535 1.1612e-005 28.01 1.8232 17.0283 -84.0362 -1.40766 6.88408e-008 24.3992 -2.49173 -151.378 64.1384 -166.841 27.891 13.5892 3.92714 -101.388 -27.9162 59.5679 8.06437e-008 28.0098 1.82319 -2.23253 -65.4231 7.6334 -3.76541e-006 24.3992 -2.49171 140.02 68.1439 167.319 6.07685e-007 2.15392 7.10543e-015 0.614533 1.22243 -2.75201 2.22045e-016 62.0609 0.472494 -2.3881e-011 1.11816e-016 -1.19271e-015 22.6695 9.653 -5.3622 -148.333 -3.61725 43.2431 -7.10543e-015 25.813 1.69098 179.922 -84.6384 178.645 1.34757e-008 28.5636 -0.966307 40.8324 10.0548 -95.6826 -22.6695 9.65298 -5.3622 131.215 -5.11699 -53.2872 0 25.813 1.69102 -179.792 -73.5595 -177.342 -2.84217e-014 28.5636 -0.966303 -45.5395 34.7507 113.917 -4.54969e-013 23.1438 -0.94499 0.743455 -6.27751 6.00815 4.54747e-013 20.8625 4.12737 0.937806 -6.06234 6.05797 -1.07873e-007 7.55202 -7.582 -1.08542e-005 4.58937 1.08543e-005 
-0.0916049 26.5508 -0.416161 -90 -3.50835e-015 -90 0 0 0 -175.971 4.20721 -3.26175 9.38773e-007 42.8363 -0.548134 1.428 -15.6116 4.47084 1.01017e-006 44.0461 -3.28882 2.18056 6.54732 -1.97435 -5.04578e-006 34.1929 -2.46662 5.8573 7.09257 1.85378 -8.95891e-006 30.0959 -1.75403 7.91486 12.5408 -3.40384 -3.29134e-006 28.3637 -1.75404 9.93973 -1.46797 5.70809 7.94089e-006 31.6072 -3.2043 5.55343 -0.184368 -9.09504 -27.891 13.5892 3.92723 118.071 -9.86732 -48.6757 1.16681e-005 28.01 1.8232 18.1231 -84.2821 -0.947111 6.45e-008 24.3992 -2.49173 -151.41 64.5195 -166.925 27.891 13.5892 3.92714 -101.196 -29.5753 59.4719 9.76043e-008 28.0098 1.82319 -2.0075 -64.5034 6.99432 -3.7481e-006 24.3992 -2.49171 139.894 68.3372 167.384 6.07685e-007 2.15392 0 0.687483 1.28337 -3.17645 0 62.0609 0.472494 9.93923e-017 -2.72087e-015 7.95139e-016 22.6695 9.653 -5.3622 -148.274 -4.47516 43.0248 -2.84217e-014 25.813 1.69098 179.909 -85.4054 178.612 9.80158e-009 28.5636 -0.966307 40.6874 9.64256 -95.6329 -22.6695 9.65298 -5.3622 131.254 -4.86575 -53.5484 2.13163e-014 25.813 1.69102 -179.796 -73.2692 -177.226 -4.9738e-014 28.5636 -0.966303 -45.6686 35.0862 114.39 -4.55191e-013 23.1438 -0.94499 0.961201 -6.36048 7.20692 4.54969e-013 20.8625 4.12737 1.19949 -6.1108 7.18805 -1.28799e-007 7.55202 -7.582 -4.9274e-010 4.5009 6.09696e-009 
